<svg width="30" height="30" viewBox="0 0 30 30" fill="none" xmlns="http://www.w3.org/2000/svg">
<path d="M18.625 26.5C19.2463 26.5 19.75 25.9963 19.75 25.375C19.75 24.7537 19.2463 24.25 18.625 24.25H9.25C7.59315 24.25 6.25 22.9069 6.25 21.25V9.25C6.25 7.59315 7.59315 6.25 9.25 6.25H18.625C19.2463 6.25 19.75 5.74632 19.75 5.125C19.75 4.50368 19.2463 4 18.625 4H9.25C6.3505 4 4 6.35051 4 9.25V21.25C4 24.1495 6.3505 26.5 9.25 26.5H18.625ZM20.1119 9.54835C20.5685 9.12692 21.2802 9.15539 21.7017 9.61194L26.2017 14.4869C26.5994 14.9179 26.5994 15.5821 26.2017 16.0131L21.7017 20.8881C21.2802 21.3446 20.5685 21.3731 20.1119 20.9517C19.6554 20.5302 19.6269 19.8185 20.0483 19.3619L22.8055 16.375H11.125C10.5037 16.375 10 15.8713 10 15.25C10 14.6287 10.5037 14.125 11.125 14.125H22.8055L20.0483 11.1381C19.6269 10.6815 19.6554 9.96978 20.1119 9.54835Z" fill="#242424"/>
</svg>
