<svg width="20" height="19" viewBox="0 0 20 19" fill="none" xmlns="http://www.w3.org/2000/svg">
<path d="M7.1034 1.47628C6.37063 0.576315 5.25298 0 4 0C1.79086 0 0 1.79086 0 4C0 5.25296 0.576408 6.37072 1.47628 7.10342C1.16748 8.01238 1 8.98663 1 10C1 12.2153 1.80037 14.2436 3.12771 15.8116L1.21967 17.7197C0.926777 18.0126 0.926777 18.4874 1.21967 18.7803C1.51256 19.0732 1.98744 19.0732 2.28033 18.7803L4.18837 16.8723C5.75638 18.1996 7.78472 19 10 19C12.2153 19 14.2436 18.1996 15.8116 16.8723L17.7197 18.7803C18.0126 19.0732 18.4874 19.0732 18.7803 18.7803C19.0732 18.4874 19.0732 18.0126 18.7803 17.7197L16.8723 15.8116C18.1996 14.2436 19 12.2153 19 10C19 8.98665 18.8325 8.01241 18.5237 7.10346C19.4237 6.37072 20.0001 5.253 20.0001 4C20.0001 1.79086 18.2092 0 16.0001 0C14.7471 0 13.6294 0.576339 12.8967 1.4763C11.9877 1.16749 11.0134 1 10 1C8.98662 1 8.01237 1.16748 7.1034 1.47628ZM4 1.5C4.63096 1.5 5.20784 1.73361 5.64828 2.12013C4.16635 2.94029 2.94029 4.16634 2.12013 5.64828C1.73356 5.20781 1.5 4.63099 1.5 4C1.5 2.61929 2.61929 1.5 4 1.5ZM14.3518 2.12016C14.7922 1.73361 15.3691 1.5 16.0001 1.5C17.3808 1.5 18.5001 2.61929 18.5001 4C18.5001 4.631 18.2665 5.20788 17.8799 5.64834C17.0598 4.1664 15.8337 2.94033 14.3518 2.12016ZM9.25 5C9.66421 5 10 5.33579 10 5.75V10H12.75C13.1642 10 13.5 10.3358 13.5 10.75C13.5 11.1642 13.1642 11.5 12.75 11.5H9.25C8.83579 11.5 8.5 11.1642 8.5 10.75V5.75C8.5 5.33579 8.83579 5 9.25 5Z" fill="#242424"/>
</svg>
