<svg width="32" height="32" viewBox="0 0 32 32" fill="none" xmlns="http://www.w3.org/2000/svg">
<path d="M7.06677 5.6129L7.06291 8.53255V22.9787C7.06291 25.4472 9.06404 27.4484 11.5326 27.4484L23.3823 27.4487C22.9574 28.6504 21.8113 29.5113 20.4641 29.5113H11.5326C7.92472 29.5113 5 26.5865 5 22.9787V8.53255C5 7.1838 5.86291 6.0366 7.06677 5.6129ZM17.5541 2C18.3751 2 19.1624 2.32626 19.7428 2.90695L26.0943 9.26218C26.6742 9.84244 27 10.6292 27 11.4496V22.9787C27 24.6877 25.6146 26.0731 23.9056 26.0731H11.5359C9.82689 26.0731 8.4415 24.6877 8.4415 22.9787V5.09437C8.4415 3.38539 9.82689 2 11.5359 2H17.5541ZM17.3767 4.06291H11.5359C10.9662 4.06291 10.5044 4.52471 10.5044 5.09437V22.9787C10.5044 23.5484 10.9662 24.0102 11.5359 24.0102H23.9056C24.4753 24.0102 24.9371 23.5484 24.9371 22.9787L24.9365 11.631L20.4718 11.6323C18.8341 11.6323 17.4935 10.3599 17.3846 8.74976L17.3775 8.5379L17.3767 4.06291ZM19.4396 5.52208L19.4404 8.5379C19.4404 9.06009 19.8284 9.49164 20.3319 9.55994L20.4718 9.56936L23.4842 9.56813L19.4396 5.52208Z" fill="#242424"/>
</svg>
