<svg width="39" height="39" viewBox="0 0 39 39" fill="none" xmlns="http://www.w3.org/2000/svg">
<path d="M36.2366 37.246C35.1782 38.2351 33.5361 38.2407 32.471 37.2589L24.6784 30.0756C24.3824 29.7796 22.0451 31.7527 20.5122 32.2839C18.9945 32.8151 17.3932 33.0807 15.7086 33.0807C13.5534 33.0807 11.5272 32.6557 9.63003 31.8058C7.73286 30.9407 6.06335 29.7568 4.6215 28.2543C3.17966 26.7366 2.04894 24.976 1.22937 22.9726C0.409789 20.9692 0 18.8292 0 16.5525C0 14.2759 0.409789 12.1435 1.22937 10.1553C2.04894 8.15189 3.17966 6.39131 4.6215 4.87358C6.06335 3.35584 7.73286 2.17201 9.63003 1.32208C11.5272 0.456968 13.5534 0.0244141 15.7086 0.0244141C17.8789 0.0244141 19.9127 0.456968 21.8099 1.32208C23.707 2.17201 25.3765 3.35584 26.8184 4.87358C28.2602 6.39131 29.3834 8.15189 30.1878 10.1553C31.0073 12.1435 31.4171 14.2759 31.4171 16.5525C31.4171 18.3283 31.1591 20.0206 30.6431 21.6294C30.127 23.223 28.0591 25.511 28.5258 26.046L36.2296 33.1951C37.4068 34.2876 37.41 36.1494 36.2366 37.246ZM15.7086 27.5258C16.5888 27.5258 17.454 27.3968 18.3039 27.1388C19.1538 26.8656 20.8096 25.8141 21.521 25.1026C21.521 25.1026 22.9294 23.5978 23.4775 22.9683C23.836 22.5565 24.3824 21.9026 24.3824 21.9026C24.8681 21.1133 25.2323 20.2634 25.4752 19.3528C25.7332 18.4421 25.8622 17.5087 25.8622 16.5525C25.8622 15.0348 25.5966 13.6157 25.0654 12.2953C24.5342 10.9749 23.7981 9.81381 22.8571 8.8121C21.9313 7.79522 20.8537 7.006 19.6243 6.44443C18.4101 5.86769 17.1049 5.57932 15.7086 5.57932C14.3122 5.57932 12.9994 5.86769 11.77 6.44443C10.5407 7.02117 9.45549 7.81798 8.51449 8.83487C7.58868 9.83657 6.86016 10.9976 6.32896 12.3181C5.81293 13.6385 5.55491 15.05 5.55491 16.5525C5.55491 18.0551 5.82052 19.4742 6.35172 20.8098C6.88293 22.1302 7.61144 23.2989 8.53726 24.3158C9.47826 25.3175 10.5558 26.1067 11.77 26.6834C12.9994 27.245 14.3122 27.5258 15.7086 27.5258Z" fill="#373737"/>
<path d="M24.7859 27.2264C23.9995 27.9027 22.8035 27.8227 22.126 27.0374C21.5526 26.3727 20.9307 25.6218 20.4103 24.884C19.4771 23.561 20.0868 21.9936 21.0672 20.7052C21.5229 20.1064 21.906 19.4405 22.2129 18.6439C22.7045 17.4649 22.8323 16.244 22.5965 14.9815C22.3489 13.7054 21.787 12.5579 20.9106 11.5389C20.0577 10.5471 19.0352 9.86656 17.8433 9.49718C16.6653 9.11579 15.4531 9.0475 14.2066 9.29231C12.9741 9.52512 11.8552 10.0737 10.8502 10.9381C9.84513 11.8025 9.1283 12.8326 8.69971 14.0284C8.28507 15.2123 8.17817 16.4151 8.37898 17.6368C8.47698 18.2331 8.65265 18.802 8.90598 19.3435C9.35843 20.3105 9.30344 21.5215 8.49394 22.2177C7.68445 22.9139 6.44341 22.8306 5.8987 21.9123C5.25188 20.8219 4.82515 19.6476 4.61852 18.3893C4.30902 16.5047 4.47394 14.6493 5.11326 12.8231C5.76654 10.985 6.86093 9.40562 8.39644 8.08503C9.94591 6.75243 11.6713 5.90671 13.5725 5.54787C15.4877 5.17702 17.3539 5.28561 19.171 5.87365C20.988 6.46169 22.5451 7.50974 23.8421 9.01779C25.1624 10.553 25.9996 12.3029 26.3535 14.2675C26.6958 16.2184 26.5007 18.1234 25.7682 19.9824C25.3695 20.9871 24.0908 21.9339 24.2562 22.9734C24.3382 23.4883 24.6434 24.0328 25.0172 24.552C25.6232 25.3937 25.5723 26.5501 24.7859 27.2264Z" fill="#30A8CE"/>
</svg>
