<svg width="24" height="24" viewBox="0 0 24 24" fill="none" xmlns="http://www.w3.org/2000/svg">
<path d="M12 0C18.6274 0 24 5.37258 24 12C24 18.6274 18.6274 24 12 24C5.37258 24 0 18.6274 0 12C0 5.37258 5.37258 0 12 0ZM12 16.5C11.3096 16.5 10.75 17.0596 10.75 17.75C10.75 18.4404 11.3096 19 12 19C12.6904 19 13.25 18.4404 13.25 17.75C13.25 17.0596 12.6904 16.5 12 16.5ZM12 4.75C10.0375 4.75 8.25 6.47515 8.25 8.5C8.25 8.91421 8.58579 9.25 9 9.25C9.41421 9.25 9.75 8.91421 9.75 8.5C9.75 7.31571 10.8542 6.25 12 6.25C13.1458 6.25 14.25 7.31571 14.25 8.5C14.25 9.37949 14.0089 9.88458 13.3176 10.5755L13.1625 10.7266L12.5928 11.2547C11.6475 12.1579 11.25 12.8513 11.25 14C11.25 14.4142 11.5858 14.75 12 14.75C12.4142 14.75 12.75 14.4142 12.75 14C12.75 13.3519 12.9633 12.972 13.6387 12.3299L13.8028 12.1768L14.0068 11.9904L14.2039 11.806C15.2847 10.7736 15.75 9.93149 15.75 8.5C15.75 6.47515 13.9625 4.75 12 4.75Z" fill="#242424"/>
</svg>
